<svg xmlns="http://www.w3.org/2000/svg" viewBox="0 0 1110.24 985.72"><defs><style>.cls-1,.cls-3{fill:#0071bc;}.cls-2{fill:#fff;}.cls-3{font-size:144.51px;font-family:Roboto-Bold, Roboto;font-weight:700;letter-spacing:0.02em;}</style></defs><title>Logo</title><g id="Capa_1" data-name="Capa 1"><g id="Logo0"><rect class="cls-1" x="325.35" y="166.98" width="203.4" height="622.55" rx="101.7"/><path class="cls-1" d="M734.75,484.44A101.71,101.71,0,0,1,633.23,580H220.87a101.7,101.7,0,0,1-101.7-101.7h0a101.7,101.7,0,0,1,101.7-101.7H633.23A101.71,101.71,0,0,1,734.42,468"/><path class="cls-1" d="M734.42,468q.51,5.08.51,10.31h0c0,2.07-.06,4.14-.18,6.18"/><circle class="cls-2" cx="260.38" cy="467.9" r="10.36"/><circle class="cls-1" cx="1020.94" cy="478.26" r="10.36"/><path class="cls-1" d="M260.38,467.9c18.34-.45,37-.45,55.71-.45,5.84-18.69,11.67-37.37,16.8-57,2.07,5.08-2.18,7.37,0,0,21.73,50,40.41,102.53,62.33,152.82,1.37-6.94,0,0,0,0,13.11-70.15,28.29-139,41.25-209.32,2.24,5.88,0,.06,0,0,16.23,41.09,31.41,82,46.59,122.83,67.73,3.5,470,0,537.88,1.47"/><path class="cls-2" d="M260.38,467.9a136.53,136.53,0,0,1,14.16-1.19c4.74-.19,9.48-.25,14.19-.37s9.41-.24,14-.63a94.8,94.8,0,0,0,13.65-2.08l-2.12,1.88c2.44-9.33,4.73-18.7,6.94-28.13l3.38-14.14c1.14-4.72,2.3-9.45,3.52-14.18l3.65-14.18,5.64,13.66a5.3,5.3,0,0,1,.33,1.18l0,.3,0,.13V411c0,.3,0,.46-.06.64s-.08.55-.12.77c-.08.44-.16.82-.24,1.19l-.27,1.11-.16.59-.12.37-.1.3,0,.09-.11.25-.14.28,0,.07v.06l-.17.27a5.08,5.08,0,0,1-5.19,2.21,4.86,4.86,0,0,1-1.45-.51,5.08,5.08,0,0,1-2.49-3.1,5.72,5.72,0,0,1-.16-.85l0-.37v-.45c0-.17,0-.41.05-.52l.05-.32.06-.37.12-.58.21-1,.44-2L331.51,393l6.15,15.49.17.42.09.27.16.46c.09.29.17.57.24.85a16.91,16.91,0,0,1,.38,1.81,10.09,10.09,0,0,1,0,2.65l-.07.48c0,.14-.1.42-.15.62s-.14.43-.22.65a8.9,8.9,0,0,1-.44.87,5.44,5.44,0,0,1-.64.88,6.7,6.7,0,0,1-1,.92A5.45,5.45,0,0,1,335,420c-.22.09-.45.17-.67.24a4.45,4.45,0,0,1-.78.17,6.1,6.1,0,0,1-2-.06,5,5,0,0,1-.49-.12q-.29-.09-.57-.21a6.61,6.61,0,0,1-1.1-.62,5.44,5.44,0,0,1-.89-.78A5.87,5.87,0,0,1,328,418a6.68,6.68,0,0,1-.41-.67,5.29,5.29,0,0,1-.28-.61c-.09-.25-.18-.52-.25-.78l-.09-.41,0-.26a9,9,0,0,1-.09-.93v-.7l0-.55c0-.36.06-.67.1-1,.07-.6.16-1.12.27-1.64l.16-.76c.06-.28.1-.45.21-.87l3.92-14.07,6.37,13.48c5.91,12.5,11.52,25.12,17,37.77s10.82,25.37,16.16,38,10.57,25.38,16,38,10.94,25.08,16.4,37.62l-17.07,1.86.54-3,17.74,3.5-.52,2.89-17.87-3.24q4.54-26.4,9.65-52.64t10.47-52.35q5.37-26.12,10.53-52.19t9.84-52.18l6.36-35.62,12.52,33.78,1,2.73-18.33,7-1.11-3,18.3-7q5.94,14.75,11.52,29.58c3.73,9.89,7.3,19.83,10.84,29.77s7,19.89,10.38,29.87l10.1,29.9-.41-1,.78,1.59c.21.44.42.79.4.77a4.88,4.88,0,0,0-.61-.6,5,5,0,0,0-.53-.41,5.91,5.91,0,0,0-.9-.52,6.51,6.51,0,0,0-1.43-.51,6.63,6.63,0,0,0-.89-.16l-.45,0h-.22l2,.11,8.11.46c5.43.32,10.76.56,16.11.82,10.71.49,21.42,1,32.14,1.39l32.19,1.12,32.22,1q32.24.9,64.52,2l32.27,1.28c10.76.5,21.52,1,32.27,1.7q-8.07.46-16.13.85l-16.13.83-32.25,1.58c-21.5,1-43,1.92-64.53,2.61q-16.14.54-32.3.89c-10.78.24-21.56.44-32.34.5s-21.58.14-32.37,0c-5.4-.06-10.82-.1-16.14-.22l-8-.15-2,0-.34,0-.58-.05a10.84,10.84,0,0,1-1.14-.19,10.1,10.1,0,0,1-3.23-1.46q-.48-.34-.93-.72a12.9,12.9,0,0,1-1.94-2.12,23.07,23.07,0,0,1-1.69-2.67c-.41-.75-.76-1.4-1.07-2l-.18-.36-.23-.61-10.95-29.54-11-29.45q-5.56-14.7-11.32-29.28t-11.73-29l18.3-7,.88,2.29-18.33,7-1-2.54,18.88-1.84c-2.92,17.65-6.24,35.2-9.64,52.71s-7.08,34.93-10.71,52.35l-11,52.14c-3.64,17.36-7.27,34.71-10.62,52.09l-17.88-3.24.69-3.3,17.74,3.5-.66,3.15L398,594.08l-11-27.21-7.77-19.25L375.33,538c-1.3-3.21-2.59-6.41-3.81-9.64Q364.11,509,357,489.66L342.63,451q-7.2-19.27-14.78-38.37l10.29-.6a3.56,3.56,0,0,0-.11.36l-.13.46c-.08.31-.16.62-.21.85l-.05.29,0,.08a.17.17,0,0,0,0-.07,2.63,2.63,0,0,0,0-.3l-.08-.35a4,4,0,0,0-.16-.49s-.12-.3-.21-.46a4.86,4.86,0,0,0-.33-.54,4.63,4.63,0,0,0-.4-.48,5.31,5.31,0,0,0-.76-.68,4.81,4.81,0,0,0-1-.54c-.17-.07-.34-.12-.5-.17l-.41-.11a4.38,4.38,0,0,0-1.69-.06l-.63.13a4.56,4.56,0,0,0-.52.18,5.36,5.36,0,0,0-.94.54,3.6,3.6,0,0,0-.76.7,4.55,4.55,0,0,0-.46.63,2.92,2.92,0,0,0-.29.59c-.05.11-.09.23-.13.34s-.06.28-.07.32l0,.16c0,.4,0,.27,0,.13a5,5,0,0,0-.09-.67l-.08-.38,0-.14v0l.06.13,9.79-.7-.53,1.8-.23.86-.1.38,0,.1v-.09a3.46,3.46,0,0,0,0-.39V414c0-.12,0-.24,0-.37a5.6,5.6,0,0,0-.16-.84,5,5,0,0,0-.95-1.81,4.92,4.92,0,0,0-1.53-1.26,5.49,5.49,0,0,0-1.45-.51,5,5,0,0,0-1.86,0,5.1,5.1,0,0,0-2,.85,5,5,0,0,0-1.27,1.33l-.2.32,0,.05-.11.23-.1.23c0,.05,0,.09,0,.07l0-.09.11-.34.24-.76.2-.7a.58.58,0,0,1,.05-.18v.27a2.62,2.62,0,0,0,0,.28V411l0,.27a4.2,4.2,0,0,0,.32,1.06l9.28-.52q-2.26,6.86-4.44,13.77l-4.37,13.86c-2.95,9.24-5.91,18.51-9.25,27.67l-.6,1.67-1.52.22c-9.71,1.4-19.35,1-28.78.3S269.85,467.7,260.38,467.9Z"/></g></g><g id="Modo_de_aislamiento" data-name="Modo de aislamiento"><text class="cls-3" transform="translate(555.12 723.35)">S.A.M.I</text></g></svg>