<svg id="Capa_1" data-name="Capa 1" xmlns="http://www.w3.org/2000/svg" viewBox="0 0 1110.24 985.72"><defs><style>.cls-1{fill:#0071bc;}.cls-2{fill:#fff;}</style></defs><title>Mesa de trabajo 2 copia 2</title><g id="Logo0"><rect class="cls-1" x="381.13" y="80.36" width="251.34" height="769.27" rx="125.67"/><rect class="cls-1" x="381.13" y="84.56" width="251.34" height="760.89" rx="125.67" transform="translate(41.8 971.8) rotate(-90)"/><circle class="cls-2" cx="300.85" cy="452.2" r="12.8"/><circle class="cls-1" cx="983.88" cy="465" r="14.89"/><polyline class="cls-1" points="300.85 452.2 369.5 452.2 390.44 381.22 467.47 570.06 518.44 311.4 576.91 465 983.88 465"/><path class="cls-2" d="M300.85,452.2q8.58-.66,17.19-1.14l17.21-.92,34.43-1.37-2.74,2c3.19-11.82,6.54-23.58,9.64-35.39s6.07-23.64,8.84-35.48L389,364.54l6.24,14.72a14.62,14.62,0,0,1,1.17,4.67,11,11,0,0,1-.17,3,8.6,8.6,0,0,1-.66,2,7.12,7.12,0,0,1-.94,1.43,6.44,6.44,0,0,1-1,1,5.79,5.79,0,0,1-2.25,1,5.62,5.62,0,0,1-3.48-.4,5.82,5.82,0,0,1-2.07-1.58,6.27,6.27,0,0,1-1.15-2.14,8.6,8.6,0,0,1-.38-2.13,15.14,15.14,0,0,1,.1-2.55,28.22,28.22,0,0,1,.78-3.82L389,365.15,395.5,379c7.24,15.46,14.09,31.08,20.84,46.72s13.26,31.38,19.79,47.07,13,31.39,19.57,47S469,551,475.85,566.4l-17.35,1.89.36-1.9.17-.95.09-.47,0-.22,0-.09v0c0,.12,0-.3-.11,1-.36,12.79,31.81-1.91,18,3v-.05l0-.09,0-.19v0l0,.09,0,.22L477,569l-.17.93-.17.93-.08.44,0,.18v0l0-.12,0-.28V571l0-.53a9.31,9.31,0,0,0-.66-3.85l-17.61,1.75q5.77-32.52,12.07-64.91l6.32-32.37,6.49-32.32,13-64.56c4.27-21.53,8.56-43,12.66-64.56l6.45-34L527.47,308l.61,1.64.31.83.16.43.09.23.05.14,0,.11,0,.12,0,.11.12.4.08.29,0,.15c0,1.88,0-4,.05,4.25-35.21,6.17-10.46.47-18,2.34l0-.09-.09-.18-.14-.3,0-.1,0-.11,0-.11-.05-.14-.09-.24-.17-.43-.32-.85-.32-.86-.17-.47-.1-.29-.08-.22-.07-.23-.09-.27-.11-.42a8,8,0,0,1-.2-1.11,9.4,9.4,0,0,1,.1-3l6.33-32.6,12.07,30.88c4.94,12.63,9.69,25.32,14.46,38s9.46,25.4,14.07,38.13,9.23,25.47,13.76,38.22l13.53,38.28-6.8-5c25.68,1.69,51.56,2.46,77.44,3.18s51.81,1.12,77.74,1.6l38.91.75c13,.24,26,.49,38.92.87s26,.71,38.93,1.2,25.94,1.08,38.9,1.88l-19.46.45c-6.49.19-13,.33-19.45.56l-38.9,1.24-38.89,1.28-38.91,1.24c-13,.42-25.94.7-38.92,1s-26,.52-39,.67c-26,.31-52,.27-78.14-.6l-4.92-.16-1.88-4.83-29.5-75.58L524.5,352.56l-15-37.62,18.4-1.72a9.29,9.29,0,0,0,.1-3,7.07,7.07,0,0,0-.2-1.11l-.1-.39-.07-.22,0-.12s0,0,0,0l0,.12.13.35.29.76.31.77.14.38.07.17,0,.06s0,0,0,0l0-.06,0-.07-.13-.29-.09-.18,0-.08c-7.58,1.87,17.17-3.83-18,2.34,0,8.25,0,2.37,0,4.25l0,.14.08.29.12.39,0,.08,0,.07s0,0,0,0l0-.06-.07-.18-.14-.38-.31-.8-.62-1.61,18.53-1.68q-5.81,32.52-12.17,64.9l-6.4,32.36-6.58,32.3-13.26,64.53c-4.37,21.51-8.77,43-13,64.5L470.58,602l-11.66-28.55a9.14,9.14,0,0,1-.65-3.85l0-.55V569l0-.31,0-.18,0-.16,0-.2.06-.29.1-.52.2-1,.2-1,.11-.49.05-.26,0-.14,0-.1,0-.08,0-.07,0-.2,0-.11v-.05c-13.78,4.88,18.39-9.82,18,3-.13,1.28-.12.87-.13,1l0,.09v.1l0,.14-.06.26L477,569l-.2,1-.4,1.92-5.93,28.78-11.42-26.9c-6.69-15.74-13-31.61-19.21-47.48s-12.15-31.83-18.15-47.74-11.86-31.84-17.89-47.69-12.14-31.66-18.46-47.38l10.36-.64a17.49,17.49,0,0,0-.6,2.21c-.06.3-.08.57-.09.55a3.48,3.48,0,0,0-.15-.6,4.15,4.15,0,0,0-.81-1.46,4.91,4.91,0,0,0-1.76-1.34,5.11,5.11,0,0,0-3.11-.36,5,5,0,0,0-1.91.84,4.55,4.55,0,0,0-.76.71,4,4,0,0,0-.52.79,1.6,1.6,0,0,0-.17.51c0,.12,0,0,0-.12a3.75,3.75,0,0,0-.25-1.33l9.83-.65c-3.42,11.84-7.21,23.54-11.08,35.19s-7.85,23.24-12,34.78l-.74,2.09-2-.07-34.41-1.24C323.8,452.83,312.33,452.52,300.85,452.2Z"/></g></svg>